<?xml version="1.0" encoding="utf-8"?>
<!-- Generator: Fusion 360, Shaper Origin Export Add-In, Version 1.7.0  -->
<svg xmlns="http://www.w3.org/2000/svg" xmlns:xlink="http://www.w3.org/1999/xlink" xmlns:shaper="http://www.shapertools.com/namespaces/shaper" shaper:fusionaddin="version:1.7.0" width="4.5cm" height="5.8901924cm" version="1.1" x="0cm" y="0cm" viewBox="0 0 4.5 5.8901924" enable-background="new 0 0 4.5 5.8901924" xml:space="preserve"><g id="Body_Body1"><path d="M1.925,1.1113993 A0.15,0.15 300 0,1 2,1.2413031 L2,5.85 A0.15,0.15 0 0,1 1.85,6 L0.15,6 A0.15,0.15 90 0,1 0,5.85 L0,0.2598076 A0.15,0.15 180 0,1 0.225,0.1299038 L1.925,1.1113993z" transform="matrix(1,0,0,-1,0,6)" fill="rgb(0,0,0)" shaper:cutDepth="0.15cm" stroke-linecap="round" stroke-linejoin="round" /><path d="M1.6267,1.3520005 a0.1125,0.1125 0 1,1 0.225,0 a0.1125,0.1125 0 1,1 -0.225,0z" transform="matrix(1,0,0,-1,0,6)" fill="rgb(255,255,255)" stroke="rgb(0,0,0)" stroke-width="0.0010cm" stroke-linecap="round" stroke-linejoin="round" shaper:cutDepth="0.15cm" /><path d="M0.1767,0.5019483 a0.1125,0.1125 0 1,1 0.225,0 a0.1125,0.1125 0 1,1 -0.225,0z" transform="matrix(1,0,0,-1,0,6)" fill="rgb(255,255,255)" stroke="rgb(0,0,0)" stroke-width="0.0010cm" stroke-linecap="round" stroke-linejoin="round" shaper:cutDepth="0.15cm" /></g><g id="Body_Body2"><path d="M4.35,6 L2.65,6 A0.15,0.15 90 0,1 2.5,5.85 L2.5,1.2413031 A0.15,0.15 180 0,1 2.575,1.1113993 L4.275,0.1299038 A0.15,0.15 240 0,1 4.5,0.2598076 L4.5,5.85 A0.15,0.15 0 0,1 4.35,6z" transform="matrix(1,0,0,-1,0,6)" fill="rgb(0,0,0)" shaper:cutDepth="0.15cm" stroke-linecap="round" stroke-linejoin="round" /><path d="M2.6483,1.3520005 a0.1125,0.1125 0 1,1 0.225,0 a0.1125,0.1125 0 1,1 -0.225,0z" transform="matrix(1,0,0,-1,0,6)" fill="rgb(255,255,255)" stroke="rgb(0,0,0)" stroke-width="0.0010cm" stroke-linecap="round" stroke-linejoin="round" shaper:cutDepth="0.15cm" /><path d="M4.0983,0.5019483 a0.1125,0.1125 0 1,1 0.225,0 a0.1125,0.1125 0 1,1 -0.225,0z" transform="matrix(1,0,0,-1,0,6)" fill="rgb(255,255,255)" stroke="rgb(0,0,0)" stroke-width="0.0010cm" stroke-linecap="round" stroke-linejoin="round" shaper:cutDepth="0.15cm" /></g></svg>